<?xml version="1.0" encoding="UTF-8"?>
<!DOCTYPE svg PUBLIC "-//W3C//DTD SVG 1.1//EN" "http://www.w3.org/Graphics/SVG/1.1/DTD/svg11.dtd">
<!-- Creator: CorelDRAW 2020 (64-Bit) -->
<svg xmlns="http://www.w3.org/2000/svg" xml:space="preserve" width="1.11013in" height="1.72422in" version="1.1" style="shape-rendering:geometricPrecision; text-rendering:geometricPrecision; image-rendering:optimizeQuality; fill-rule:evenodd; clip-rule:evenodd"
viewBox="0 0 1059.39 1645.42"
 xmlns:xlink="http://www.w3.org/1999/xlink"
 xmlns:xodm="http://www.corel.com/coreldraw/odm/2003">
 <defs>
  <style type="text/css">
   <![CDATA[
    .fil0 {fill:white}
   ]]>
  </style>
 </defs>
 <g id="Layer_x0020_1">
  <metadata id="CorelCorpID_0Corel-Layer"/>
  <path class="fil0" d="M480.86 822c-23.89,23.65 -48.39,46.93 -71.41,69.95 -45.71,45.71 -91.42,91.42 -137.14,137.13 -22.14,22.14 -43.33,45.48 -66.12,66.93 -48.23,45.39 -96.93,96.92 -140.56,146.79 -42.53,48.62 -65.62,90.99 -65.62,157.94 0,132.62 106.74,244.67 240.63,244.67 52.86,0 98.19,-13.41 139.74,-46.54 14.81,-11.81 27.27,-25.15 41.38,-37.47 33.4,-29.17 63.77,-61.52 95.09,-92.84 59.56,-59.56 118.63,-119.61 178.9,-178.45 91.38,-89.21 181.2,-180.38 268.76,-273.33 47.5,-50.42 94.88,-101.82 94.88,-176.68 0,-76.32 -4.72,-103.36 -53.81,-164.95 -17.98,-22.55 -37.61,-44.81 -58.08,-65.13 -35.94,-35.68 -70.55,-72.68 -106.43,-108.43 -72.02,-71.76 -143.6,-143.98 -215.51,-215.86 -35.85,-35.83 -72.21,-71.16 -108.04,-107.01 -36.23,-36.25 -77.67,-79.88 -116.92,-111.88 -34.91,-28.47 -62.95,-53.48 -110.13,-61.61 -30.54,-5.26 -47.55,-7.51 -79.67,-2.18 -23.79,3.95 -45.15,7.81 -67.41,18.04 -89.37,41.09 -142.05,124.62 -142.05,223.4 0,66.65 23.17,115.35 68.97,161.59 22.79,23.01 44.13,47.41 66.99,70.4l340.51 342.5c0.98,0.99 2,2 3.04,3.01z"/>
 </g>
</svg>
