<?xml version="1.0" encoding="UTF-8"?>
<!DOCTYPE svg PUBLIC "-//W3C//DTD SVG 1.1//EN" "http://www.w3.org/Graphics/SVG/1.1/DTD/svg11.dtd">
<!-- Creator: CorelDRAW 2020 (64-Bit) -->
<svg xmlns="http://www.w3.org/2000/svg" xml:space="preserve" width="1.11013in" height="1.72422in" version="1.1" style="shape-rendering:geometricPrecision; text-rendering:geometricPrecision; image-rendering:optimizeQuality; fill-rule:evenodd; clip-rule:evenodd"
viewBox="0 0 320.05 497.09"
 xmlns:xlink="http://www.w3.org/1999/xlink"
 xmlns:xodm="http://www.corel.com/coreldraw/odm/2003">
 <defs>
  <style type="text/css">
   <![CDATA[
    .fil0 {fill:white}
   ]]>
  </style>
 </defs>
 <g id="Layer_x0020_1">
  <metadata id="CorelCorpID_0Corel-Layer"/>
  <path class="fil0" d="M174.78 248.33c7.22,7.15 14.62,14.18 21.57,21.13 13.81,13.81 27.62,27.62 41.43,41.43 6.69,6.69 13.09,13.74 19.98,20.22 14.57,13.71 29.28,29.28 42.46,44.35 12.85,14.69 19.83,27.49 19.83,47.71 0,40.07 -32.25,73.92 -72.7,73.92 -15.97,0 -29.67,-4.05 -42.22,-14.06 -4.47,-3.57 -8.24,-7.6 -12.5,-11.32 -10.09,-8.81 -19.26,-18.59 -28.73,-28.05 -17.99,-17.99 -35.84,-36.14 -54.05,-53.91 -27.61,-26.95 -54.74,-54.49 -81.19,-82.58 -14.35,-15.23 -28.66,-30.76 -28.66,-53.38 0,-23.06 1.42,-31.22 16.25,-49.83 5.43,-6.81 11.36,-13.54 17.55,-19.67 10.86,-10.78 21.31,-21.96 32.15,-32.76 21.76,-21.68 43.38,-43.5 65.11,-65.21 10.83,-10.82 21.81,-21.5 32.64,-32.33 10.95,-10.95 23.46,-24.13 35.32,-33.8 10.55,-8.6 19.02,-16.16 33.27,-18.61 9.23,-1.59 14.36,-2.27 24.07,-0.66 7.19,1.19 13.64,2.36 20.36,5.45 27,12.41 42.91,37.65 42.91,67.49 0,20.14 -7,34.85 -20.84,48.82 -6.89,6.95 -13.33,14.32 -20.24,21.27l-102.87 103.47c-0.3,0.3 -0.6,0.6 -0.92,0.91z"/>
 </g>
</svg>
