<?xml version="1.0" encoding="UTF-8"?>
<!DOCTYPE svg PUBLIC "-//W3C//DTD SVG 1.1//EN" "http://www.w3.org/Graphics/SVG/1.1/DTD/svg11.dtd">
<!-- Creator: CorelDRAW 2020 (64-Bit) -->
<svg xmlns="http://www.w3.org/2000/svg" xml:space="preserve" width="1.84856in" height="0.236685in" version="1.1" style="shape-rendering:geometricPrecision; text-rendering:geometricPrecision; image-rendering:optimizeQuality; fill-rule:evenodd; clip-rule:evenodd"
viewBox="0 0 18.26 2.34"
 xmlns:xlink="http://www.w3.org/1999/xlink"
 xmlns:xodm="http://www.corel.com/coreldraw/odm/2003">
 <defs>
  <style type="text/css">
   <![CDATA[
    .fil0 {fill:white;fill-rule:nonzero}
    .fil1 {fill:url(#id0);fill-rule:nonzero}
   ]]>
  </style>
  <linearGradient id="id0" gradientUnits="userSpaceOnUse" x1="0.57" y1="2.36" x2="2.73" y2="-0.04">
   <stop offset="0" style="stop-opacity:1; stop-color:#0F4C5C"/>
   <stop offset="1" style="stop-opacity:1; stop-color:#00CCFF"/>
  </linearGradient>
 </defs>
 <g id="Layer_x0020_1">
  <metadata id="CorelCorpID_0Corel-Layer"/>
  <g id="_3108883918320">
   <path class="fil0" d="M4.35 1.02l0 0c0.15,0 0.28,0.05 0.39,0.16 0.11,0.11 0.16,0.23 0.16,0.39 0,0.15 -0.05,0.28 -0.16,0.38 -0.11,0.11 -0.23,0.16 -0.39,0.16l-1.05 0 0 -0.31 1.05 0c0.07,0 0.12,-0.02 0.17,-0.07 0.05,-0.05 0.07,-0.1 0.07,-0.17 0,-0.07 -0.02,-0.12 -0.07,-0.17 -0.05,-0.05 -0.1,-0.07 -0.17,-0.07l-0.15 0 -0.08 0 -0.36 0c-0.15,0 -0.28,-0.05 -0.38,-0.16 -0.11,-0.11 -0.16,-0.23 -0.16,-0.38 0,-0.15 0.05,-0.28 0.16,-0.39 0.11,-0.11 0.23,-0.16 0.38,-0.16l1.02 0 0 0.31 -1.02 0c-0.07,0 -0.12,0.02 -0.17,0.07 -0.05,0.05 -0.07,0.1 -0.07,0.17 0,0.06 0.02,0.12 0.07,0.17 0.05,0.05 0.1,0.07 0.17,0.07l0.36 0 0.08 0 0.15 0z"/>
   <path id="1" class="fil0" d="M5.88 1.81l0 0c0.01,0 0.02,-0 0.04,-0 0.02,-0 0.04,-0.01 0.05,-0.01l0.11 0.29c-0.04,0.01 -0.07,0.02 -0.11,0.03 -0.04,0.01 -0.07,0.01 -0.09,0.01 -0.14,0 -0.26,-0.03 -0.38,-0.1 -0.11,-0.07 -0.21,-0.16 -0.27,-0.27 -0.07,-0.11 -0.1,-0.24 -0.1,-0.38l0 -1.13 0.31 0 0 0.37 0.48 0 0 0.31 -0.48 0 0 0.46c0,0.12 0.04,0.23 0.13,0.32 0.09,0.09 0.19,0.13 0.32,0.13z"/>
   <path id="2" class="fil0" d="M7.06 0.61l0 0c0.14,0 0.27,0.03 0.38,0.1 0.11,0.07 0.2,0.16 0.27,0.27 0.07,0.11 0.1,0.24 0.1,0.38l0 0.15 -1.17 0c0.03,0.09 0.09,0.16 0.16,0.21 0.08,0.05 0.16,0.08 0.26,0.08l0.48 0 0 0.31 -0.48 0c-0.14,0 -0.26,-0.03 -0.38,-0.1 -0.11,-0.07 -0.21,-0.16 -0.27,-0.27 -0.07,-0.11 -0.1,-0.24 -0.1,-0.38 0,-0.14 0.03,-0.26 0.1,-0.38 0.07,-0.11 0.16,-0.2 0.27,-0.27 0.11,-0.07 0.24,-0.1 0.38,-0.1zm-0.42 0.6l0 0 0.84 0c-0.03,-0.09 -0.09,-0.16 -0.16,-0.21 -0.07,-0.05 -0.16,-0.08 -0.26,-0.08 -0.1,0 -0.18,0.03 -0.26,0.08 -0.07,0.05 -0.13,0.12 -0.16,0.21z"/>
   <path id="3" class="fil0" d="M9.47 0.78l0 0c0,0.09 -0.02,0.18 -0.06,0.25 -0.04,0.08 -0.1,0.14 -0.17,0.19 0.07,0.07 0.13,0.15 0.17,0.25 0.04,0.09 0.06,0.2 0.06,0.31l0 0.33 -0.31 0 0 -0.33c0,-0.12 -0.04,-0.23 -0.11,-0.31 -0.08,-0.09 -0.17,-0.13 -0.28,-0.14l-0.42 0 0 0.79 -0.31 0 0 -1.87 0.88 0c0.15,0 0.28,0.05 0.38,0.16 0.11,0.11 0.16,0.23 0.16,0.38zm-1.12 -0.24l0 0 0 0.47 0.41 0 0 0c0,0 0.01,0 0.01,0 0,0 0.01,0 0.01,0l0.15 0c0.07,0 0.12,-0.02 0.17,-0.07 0.05,-0.05 0.07,-0.1 0.07,-0.17 0,-0.07 -0.02,-0.12 -0.07,-0.17 -0.05,-0.05 -0.1,-0.07 -0.17,-0.07l-0.58 0z"/>
   <path id="4" class="fil0" d="M9.7 2.11l0 0 0 -1.13 0.31 0 0 1.13 -0.31 0zm0.31 -1.73l0 0 0 0.31 -0.31 0 0 -0.15 0.31 -0.15z"/>
   <path id="5" class="fil0" d="M10.99 0.61l0 0c0.14,0 0.27,0.03 0.38,0.1 0.11,0.07 0.2,0.16 0.27,0.27 0.07,0.11 0.1,0.24 0.1,0.38 0,0.14 -0.03,0.26 -0.1,0.38 -0.07,0.11 -0.16,0.2 -0.27,0.27 -0.11,0.07 -0.24,0.1 -0.38,0.1 -0.14,0 -0.26,-0.03 -0.38,-0.1 -0.11,-0.07 -0.21,-0.16 -0.27,-0.27 -0.07,-0.11 -0.1,-0.24 -0.1,-0.38 0,-0.14 0.03,-0.26 0.1,-0.38 0.07,-0.11 0.16,-0.2 0.27,-0.27 0.11,-0.07 0.24,-0.1 0.38,-0.1zm0 1.2l0 0c0.12,0 0.23,-0.04 0.31,-0.13 0.09,-0.09 0.13,-0.19 0.13,-0.31 0,-0.12 -0.04,-0.23 -0.13,-0.32 -0.09,-0.09 -0.19,-0.13 -0.32,-0.13 -0.12,0 -0.23,0.04 -0.31,0.13 -0.09,0.09 -0.13,0.19 -0.13,0.31 0,0.12 0.04,0.23 0.13,0.32 0.09,0.09 0.19,0.13 0.32,0.13z"/>
   <path id="6" class="fil0" d="M12.91 0.54l0 0c-0.17,0 -0.32,0.06 -0.45,0.19 -0.12,0.12 -0.18,0.27 -0.18,0.45 0,0.17 0.06,0.32 0.18,0.45 0.12,0.12 0.27,0.18 0.45,0.18 0.18,0 0.34,-0.07 0.48,-0.22l0.23 0.2c-0.09,0.1 -0.2,0.18 -0.32,0.24 -0.12,0.06 -0.25,0.08 -0.39,0.08 -0.17,0 -0.33,-0.04 -0.47,-0.13 -0.14,-0.08 -0.25,-0.2 -0.34,-0.34 -0.08,-0.14 -0.13,-0.3 -0.13,-0.47 0,-0.17 0.04,-0.33 0.13,-0.47 0.08,-0.14 0.2,-0.25 0.34,-0.34 0.14,-0.08 0.3,-0.13 0.47,-0.13 0.14,0 0.26,0.03 0.39,0.08 0.12,0.06 0.23,0.13 0.32,0.24l-0.23 0.2c-0.14,-0.14 -0.29,-0.22 -0.48,-0.22z"/>
   <path id="7" class="fil0" d="M14.59 0.61l0 0c0.14,0 0.27,0.03 0.38,0.1 0.11,0.07 0.2,0.16 0.27,0.27 0.07,0.11 0.1,0.24 0.1,0.38 0,0.14 -0.03,0.26 -0.1,0.38 -0.07,0.11 -0.16,0.2 -0.27,0.27 -0.11,0.07 -0.24,0.1 -0.38,0.1 -0.14,0 -0.26,-0.03 -0.38,-0.1 -0.11,-0.07 -0.21,-0.16 -0.27,-0.27 -0.07,-0.11 -0.1,-0.24 -0.1,-0.38 0,-0.14 0.03,-0.26 0.1,-0.38 0.07,-0.11 0.16,-0.2 0.27,-0.27 0.11,-0.07 0.24,-0.1 0.38,-0.1zm0 1.2l0 0c0.12,0 0.23,-0.04 0.31,-0.13 0.09,-0.09 0.13,-0.19 0.13,-0.31 0,-0.12 -0.04,-0.23 -0.13,-0.32 -0.09,-0.09 -0.19,-0.13 -0.32,-0.13 -0.12,0 -0.23,0.04 -0.31,0.13 -0.09,0.09 -0.13,0.19 -0.13,0.31 0,0.12 0.04,0.23 0.13,0.32 0.09,0.09 0.19,0.13 0.32,0.13z"/>
   <path id="8" class="fil0" d="M15.58 1.36l0 0c0,-0.14 0.03,-0.26 0.1,-0.38 0.07,-0.11 0.16,-0.21 0.27,-0.27 0.11,-0.07 0.24,-0.1 0.38,-0.1 0.02,0 0.05,0 0.09,0.01 0.04,0.01 0.07,0.01 0.11,0.03l-0.11 0.29c-0.02,-0.01 -0.03,-0.01 -0.05,-0.01 -0.02,-0 -0.03,-0 -0.04,-0 -0.12,0 -0.23,0.04 -0.32,0.13 -0.09,0.09 -0.13,0.19 -0.13,0.31l0 0.75 -0.31 0 0 -0.75z"/>
   <path id="9" class="fil0" d="M17.96 0.61l0 0 0 -0.21 0.31 -0.15 0 0.37 0 0.15 0 0.6c0,0.14 -0.03,0.26 -0.1,0.38 -0.07,0.11 -0.16,0.21 -0.27,0.27 -0.11,0.07 -0.24,0.1 -0.38,0.1 -0.14,0 -0.26,-0.03 -0.38,-0.1 -0.11,-0.07 -0.2,-0.16 -0.27,-0.27 -0.07,-0.11 -0.1,-0.24 -0.1,-0.38 0,-0.14 0.03,-0.27 0.1,-0.38 0.07,-0.11 0.16,-0.2 0.27,-0.27 0.11,-0.07 0.24,-0.1 0.38,-0.1l0.44 0zm0 0.75l0 0 0 -0.44 -0.44 0c-0.12,0 -0.23,0.04 -0.32,0.13 -0.09,0.09 -0.13,0.19 -0.13,0.32 0,0.12 0.04,0.23 0.13,0.31 0.09,0.09 0.19,0.13 0.31,0.13 0.12,0 0.23,-0.04 0.32,-0.13 0.09,-0.09 0.13,-0.19 0.13,-0.32z"/>
   <path class="fil1" d="M2.34 1.17l0 0 0 -1.17 -1.17 0c-0.32,0 -0.6,0.11 -0.83,0.34 -0.23,0.23 -0.34,0.5 -0.34,0.83 0,0.32 0.11,0.6 0.34,0.82 0.23,0.23 0.5,0.34 0.82,0.34 0.33,0 0.6,-0.12 0.83,-0.34 0.23,-0.23 0.34,-0.51 0.34,-0.83z"/>
  </g>
 </g>
</svg>
