<?xml version="1.0" encoding="UTF-8"?>
<!DOCTYPE svg PUBLIC "-//W3C//DTD SVG 1.1//EN" "http://www.w3.org/Graphics/SVG/1.1/DTD/svg11.dtd">
<!-- Creator: CorelDRAW 2020 (64-Bit) -->
<svg xmlns="http://www.w3.org/2000/svg" xml:space="preserve" width="1.72605in" height="0.467945in" version="1.1" style="shape-rendering:geometricPrecision; text-rendering:geometricPrecision; image-rendering:optimizeQuality; fill-rule:evenodd; clip-rule:evenodd"
viewBox="0 0 929.59 252.02"
 xmlns:xlink="http://www.w3.org/1999/xlink"
 xmlns:xodm="http://www.corel.com/coreldraw/odm/2003">
 <defs>
  <style type="text/css">
   <![CDATA[
    .fil0 {fill:black;fill-rule:nonzero}
   ]]>
  </style>
 </defs>
 <g id="Layer_x0020_1">
  <metadata id="CorelCorpID_0Corel-Layer"/>
  <path class="fil0" d="M-0 108.9c95.19,-24.5 344.08,-70.73 558.53,-94.31 149.02,-16.39 283.91,-21.69 347.05,-1.53 25.56,8.16 30.09,18.87 16.57,31.95 -19.8,19.16 -120.09,43.3 -249.56,74.47 -97.18,23.39 -246.18,50.41 -351.77,81.04 -149.55,43.37 372.38,-13.61 373.78,-13.77 -106.53,50.15 -848.23,124.57 -366.76,-15.07 107.27,-31.11 222.91,-58.95 321.14,-82.6 92.94,-22.37 169.54,-40.81 203.51,-52.42 -116.07,-29.43 -732.2,46.63 -852.49,72.25z"/>
 </g>
</svg>
